<?xml version="1.0" encoding="UTF-8"?>
<!DOCTYPE svg PUBLIC "-//W3C//DTD SVG 1.1//EN" "http://www.w3.org/Graphics/SVG/1.1/DTD/svg11.dtd">
<!-- Creator: CorelDRAW X8 -->
<svg xmlns="http://www.w3.org/2000/svg" xml:space="preserve" width="210mm" height="297mm" version="1.1" style="shape-rendering:geometricPrecision; text-rendering:geometricPrecision; image-rendering:optimizeQuality; fill-rule:evenodd; clip-rule:evenodd"
viewBox="0 0 21000 29700"
 xmlns:xlink="http://www.w3.org/1999/xlink">
 <defs>
  <style type="text/css">
   <![CDATA[
    .fil0 {fill:#373435}
   ]]>
  </style>
 </defs>
 <g id="Camada_x0020_1">
  <metadata id="CorelCorpID_0Corel-Layer"/>
  <g id="_2780702152464">
   <g>
    <g>
     <path class="fil0" d="M18438 12921c209,-221 404,-457 583,-706 1,-2 2,-3 3,-5 477,-691 382,-1618 -224,-2205 -672,-649 -1764,-649 -2435,0l-49 47 -49 -47c-672,-649 -1764,-649 -2435,0 -3,2 -5,5 -7,7 -995,-304 -2033,-458 -3086,-458l-478 0c-2739,0 -5314,1032 -7252,2907 -1940,1876 -3009,4373 -3009,7028 0,170 138,308 308,308l3171 0c170,0 308,-138 308,-308 0,-170 -138,-307 -308,-307l-2859 0c169,-4998 4429,-9012 9641,-9012l478 0c925,0 1836,126 2715,374 -131,293 -177,616 -133,931 -833,-252 -1699,-380 -2582,-380l-478 0c-4143,0 -7722,2857 -8510,6793 -18,91 5,185 63,256 59,71 146,113 238,113l7250 0c200,452 662,770 1198,770 686,0 1250,-520 1299,-1177l2753 -3043c258,-286 244,-721 -34,-990 -270,-261 -707,-275 -994,-32l-3206 2714c-594,81 -1061,554 -1115,1142l-6766 0c874,-3459 4104,-5931 7824,-5931l478 0c990,0 1957,172 2875,512 1,1 2,1 3,1 531,738 1198,1357 1982,1840l418 258c91,56 195,84 299,84 104,0 208,-28 299,-84l87 -54c905,964 1543,2121 1861,3374l-5933 0c-170,0 -308,138 -308,308 0,170 138,308 308,308l6318 0c92,0 179,-42 238,-113 58,-71 81,-165 63,-256 -294,-1468 -989,-2829 -2016,-3954 269,-178 524,-373 763,-584 1472,1623 2311,3675 2384,5832l-8622 0c-61,0 -122,18 -173,53 -319,217 -694,332 -1085,332 -391,0 -766,-115 -1085,-332 -51,-35 -111,-53 -173,-53l-4701 0c-170,0 -308,137 -308,307 0,170 138,308 308,308l4609 0c403,252 868,385 1350,385 482,0 947,-133 1350,-385l8842 0c170,0 308,-138 308,-308 0,-2428 -908,-4752 -2562,-6568zm-4516 1334c48,-41 123,-39 168,5 39,37 42,94 5,134l-2467 2728c-122,-206 -302,-376 -518,-488l2812 -2379zm-3422 2846c379,0 688,294 688,655 0,362 -309,655 -688,655 -379,0 -688,-293 -688,-655 0,-361 309,-655 688,-655zm6210 -3562l-394 243 -394 -243c-716,-441 -1325,-1007 -1810,-1681 -303,-442 -241,-1035 147,-1411 436,-421 1145,-421 1580,0l82 80c218,210 572,210 790,0l82 -80c435,-421 1144,-421 1579,0 389,376 451,969 148,1411 -485,674 -1094,1240 -1810,1681z"/>
     <path class="fil0" d="M10694 12635l-388 0c-1430,0 -2810,389 -3989,1126 -1156,722 -2047,1727 -2576,2907 -69,155 0,337 155,406 41,19 84,27 126,27 117,0 229,-67 281,-182 999,-2228 3356,-3669 6003,-3669l388 0c638,0 1269,85 1874,251 164,45 334,-51 379,-215 45,-164 -52,-333 -216,-378 -658,-181 -1344,-273 -2037,-273z"/>
     <path class="fil0" d="M16697 16920c52,114 164,181 281,181 42,0 85,-8 126,-27 155,-69 224,-251 155,-406 -337,-752 -820,-1432 -1436,-2022 -123,-118 -318,-113 -435,9 -118,123 -114,318 9,435 559,536 996,1151 1300,1830z"/>
    </g>
   </g>
  </g>
  <g id="_2780702151440">
  </g>
  <g id="_2780702151184">
  </g>
  <g id="_2780702151952">
  </g>
  <g id="_2780702152624">
  </g>
  <g id="_2780702151792">
  </g>
  <g id="_2780702151024">
  </g>
  <g id="_2780702152784">
  </g>
  <g id="_2780702149808">
  </g>
  <g id="_2780702150448">
  </g>
  <g id="_2780702149392">
  </g>
  <g id="_2780702149008">
  </g>
  <g id="_2780702150544">
  </g>
  <g id="_2780702150064">
  </g>
  <g id="_2780702149264">
  </g>
  <g id="_2780702150992">
  </g>
 </g>
</svg>
