<?xml version="1.0" encoding="UTF-8"?>
<!DOCTYPE svg PUBLIC "-//W3C//DTD SVG 1.1//EN" "http://www.w3.org/Graphics/SVG/1.1/DTD/svg11.dtd">
<!-- Creator: CorelDRAW X8 -->
<svg xmlns="http://www.w3.org/2000/svg" xml:space="preserve" width="210mm" height="297mm" version="1.1" style="shape-rendering:geometricPrecision; text-rendering:geometricPrecision; image-rendering:optimizeQuality; fill-rule:evenodd; clip-rule:evenodd"
viewBox="0 0 21000 29700"
 xmlns:xlink="http://www.w3.org/1999/xlink">
 <defs>
  <style type="text/css">
   <![CDATA[
    .fil0 {fill:#373435}
   ]]>
  </style>
 </defs>
 <g id="Camada_x0020_1">
  <metadata id="CorelCorpID_0Corel-Layer"/>
  <g id="_2780702153776">
   <g>
    <g>
     <path class="fil0" d="M19799 20700l-222 -295c-1266,-1690 -1964,-3783 -1964,-5894l0 -3048c0,-3922 -3191,-7113 -7113,-7113 -3922,0 -7113,3191 -7113,7113l0 3048c0,2111 -698,4204 -1964,5894l-222 295 313 195c67,42 1593,976 4878,1461 -245,266 -514,514 -806,741l-548 427 456 1826 10012 0 457 -1826 -549 -426c-292,-228 -561,-476 -806,-742 3286,-485 4811,-1419 4878,-1461l313 -195zm-4801 2932l201 157 -222 884 -8954 0 -222 -884 201 -157c1683,-1308 2687,-3244 2794,-5356 533,190 1106,300 1704,300 599,0 1171,-110 1704,-301 107,2113 1111,4049 2794,5357zm-8901 -10137l0 -1693c0,-561 456,-1017 1016,-1017l1698 0c2054,0 4062,-575 5805,-1664 120,-75 288,20 288,159l0 4215c-1,2428 -1976,4403 -4404,4403 -2428,0 -4403,-1975 -4403,-4403zm8007 8246c-780,-1082 -1213,-2384 -1231,-3757 1609,-854 2708,-2544 2708,-4489l0 -4215c0,-477 -389,-865 -866,-865 -162,0 -320,45 -458,131 -1635,1022 -3519,1562 -5446,1562l-1698 0c-934,0 -1694,760 -1694,1694l0 1693c0,1945 1099,3635 2708,4489 -18,1373 -451,2675 -1231,3757 -2541,-331 -4077,-952 -4700,-1251 1207,-1747 1869,-3854 1869,-5979l0 -3048c0,-3549 2886,-6436 6435,-6436 3549,0 6435,2887 6435,6436l0 3048c0,2125 662,4233 1870,5980 -620,299 -2149,918 -4701,1250z"/>
     <rect class="fil0" x="7113" y="23318" width="5419" height="677"/>
     <rect class="fil0" x="13210" y="23318" width="677" height="677"/>
    </g>
   </g>
  </g>
  <g id="_2780702154224">
  </g>
  <g id="_2780702153488">
  </g>
  <g id="_2780702153552">
  </g>
  <g id="_2780702153680">
  </g>
  <g id="_2780702151984">
  </g>
  <g id="_2780702152528">
  </g>
  <g id="_2780702151728">
  </g>
  <g id="_2780702152336">
  </g>
  <g id="_2780702152400">
  </g>
  <g id="_2780702151088">
  </g>
  <g id="_2780702152592">
  </g>
  <g id="_2780702151696">
  </g>
  <g id="_2780702149520">
  </g>
  <g id="_2780702150928">
  </g>
  <g id="_2780702149200">
  </g>
 </g>
</svg>
