<?xml version="1.0" encoding="UTF-8"?>
<!DOCTYPE svg PUBLIC "-//W3C//DTD SVG 1.1//EN" "http://www.w3.org/Graphics/SVG/1.1/DTD/svg11.dtd">
<!-- Creator: CorelDRAW X8 -->
<svg xmlns="http://www.w3.org/2000/svg" xml:space="preserve" width="210mm" height="297mm" version="1.1" style="shape-rendering:geometricPrecision; text-rendering:geometricPrecision; image-rendering:optimizeQuality; fill-rule:evenodd; clip-rule:evenodd"
viewBox="0 0 21000 29700"
 xmlns:xlink="http://www.w3.org/1999/xlink">
 <defs>
  <style type="text/css">
   <![CDATA[
    .fil0 {fill:#373435}
   ]]>
  </style>
 </defs>
 <g id="Camada_x0020_1">
  <metadata id="CorelCorpID_0Corel-Layer"/>
  <path class="fil0" d="M16144 15697c2,-3270 961,-6436 2775,-9157l293 -439 -927 0 -82 83c-2419,2419 -3752,5636 -3752,9057l0 456 -3424 0c391,-2254 1244,-4407 2530,-6335l292 -439 -926 0 -83 83c-1851,1852 -3063,4171 -3531,6691l-3800 0c274,-2663 1187,-5216 2686,-7464l292 -439 -926 0 -83 83c-2125,2125 -3410,4866 -3692,7820l-2035 0 0 7902 17498 0 0 -7902 -3105 0zm2540 1143c-624,67 -984,354 -1305,611 -337,270 -628,503 -1235,503l0 -1693 2540 0 0 579zm-3668 2589l0 -4188c0,-2698 866,-5263 2468,-7376 -1251,2416 -1904,5093 -1904,7839l0 3724 93 84c122,110 189,259 189,418 0,311 -253,564 -564,564 -311,0 -565,-253 -565,-564 0,-159 67,-308 189,-417l94 -84zm-565 -3168l0 861c-281,-168 -630,-296 -1131,-296 -805,0 -1221,332 -1587,626 -277,221 -526,416 -940,479 20,-561 70,-1118 146,-1670l3512 0 0 0zm-4798 1802c0,-2698 867,-5262 2468,-7376 -1250,2417 -1903,5093 -1903,7839l0 1143 169 74c412,181 677,586 677,1034 0,622 -506,1129 -1128,1129 -623,0 -1129,-507 -1129,-1129 0,-448 265,-853 677,-1034l169 -74 0 -1606zm-437 -1802c-50,354 -85,711 -105,1071 -334,-257 -739,-506 -1435,-506 -805,0 -1221,332 -1587,626 -214,171 -406,324 -669,415l0 -469c0,-380 14,-760 40,-1137l3756 0 0 0zm-4925 2885l0 -2212c0,-2698 866,-5262 2468,-7376 -1250,2417 -1903,5093 -1903,7840l0 1748 93 84c122,110 189,259 189,418 0,311 -253,564 -565,564 -311,0 -564,-253 -564,-564 0,-159 67,-308 189,-418l93 -84zm-546 -2885c-12,224 -18,448 -18,673l0 600c-36,-28 -71,-53 -107,-82 -321,-257 -680,-544 -1304,-612l0 -579 1429 0zm-1429 6773l0 -1671c422,61 672,257 951,480 367,294 783,627 1587,627 805,0 1220,-333 1587,-626 337,-270 628,-503 1235,-503l0 -564c-805,0 -1221,332 -1588,626 -337,270 -627,503 -1234,503 -606,0 -897,-233 -1234,-503 -321,-257 -680,-544 -1304,-612l0 -3380c422,62 672,258 952,482 141,113 287,229 459,331l0 682c-181,205 -283,469 -283,742 0,622 507,1129 1129,1129 623,0 1129,-507 1129,-1129 0,-273 -101,-537 -282,-742l0 -453c456,-111 755,-347 1021,-561 337,-269 628,-502 1235,-502 606,0 897,233 1234,502 59,47 120,92 180,138 0,11 -1,22 -1,33l0 1248c-520,301 -847,857 -847,1465 0,934 760,1694 1694,1694 933,0 1693,-760 1693,-1694 0,-608 -327,-1164 -847,-1465l0 -785c0,-7 0,-14 0,-22 624,-68 982,-355 1303,-611 338,-270 628,-503 1235,-503 545,0 835,187 1131,420l0 1378c-181,206 -282,469 -282,742 0,623 506,1129 1129,1129 622,0 1129,-506 1129,-1129 0,-273 -102,-536 -283,-742l0 -669c805,0 1220,-333 1587,-626 280,-224 531,-420 953,-482l0 3380c-624,68 -984,355 -1305,612 -337,270 -629,503 -1236,503 -607,0 -898,-233 -1235,-503 -367,-294 -783,-626 -1588,-626 -461,0 -845,109 -1208,344l306 474c194,-126 453,-254 902,-254 607,0 898,233 1235,503 367,293 783,626 1588,626 805,0 1221,-333 1588,-626 280,-224 531,-420 953,-481l0 1671 -16368 0zm0 0z"/>
 </g>
</svg>
