<?xml version="1.0" encoding="UTF-8"?>
<!DOCTYPE svg PUBLIC "-//W3C//DTD SVG 1.1//EN" "http://www.w3.org/Graphics/SVG/1.1/DTD/svg11.dtd">
<!-- Creator: CorelDRAW X8 -->
<svg xmlns="http://www.w3.org/2000/svg" xml:space="preserve" width="210mm" height="297mm" version="1.1" style="shape-rendering:geometricPrecision; text-rendering:geometricPrecision; image-rendering:optimizeQuality; fill-rule:evenodd; clip-rule:evenodd"
viewBox="0 0 21000 29700"
 xmlns:xlink="http://www.w3.org/1999/xlink">
 <defs>
  <style type="text/css">
   <![CDATA[
    .fil0 {fill:#373435}
   ]]>
  </style>
 </defs>
 <g id="Camada_x0020_1">
  <metadata id="CorelCorpID_0Corel-Layer"/>
  <g id="_2780701182464">
   <g>
    <path class="fil0" d="M20650 12049l-7192 0c-194,0 -351,157 -351,350 0,47 10,94 28,137 347,845 522,1750 515,2663 0,2702 -1413,4900 -3150,4900 -1737,0 -3150,-2198 -3150,-4900 -7,-913 168,-1818 515,-2663 75,-178 -8,-383 -185,-459 -44,-18 -90,-28 -137,-28l-7193 0c-193,0 -350,157 -350,350l0 12600c0,194 157,350 350,350l20300 0c193,0 350,-156 350,-350l0 -12600c0,-193 -157,-350 -350,-350zm-19950 700l6335 0c-192,583 -313,1186 -360,1798 -354,168 -637,455 -802,811 -214,359 -336,529 -532,529 -195,0 -318,-170 -532,-530 -219,-367 -518,-870 -1133,-870 -616,0 -913,502 -1131,871 -214,359 -336,529 -532,529 -196,0 -317,-170 -531,-529 -162,-349 -438,-633 -782,-805l0 -1804zm19600 11900l-19600 0 0 -9213c55,77 112,165 180,280 219,367 518,871 1133,871 615,0 914,-504 1133,-871 214,-360 335,-529 531,-529 196,0 318,169 532,529 219,367 518,871 1134,871 615,0 914,-504 1133,-871 70,-116 127,-205 182,-280 86,2977 1774,5363 3842,5363 1800,0 3312,-1809 3731,-4242 400,-146 723,-450 895,-840 213,-360 336,-529 531,-529 196,0 319,169 533,529 218,367 518,871 1133,871 615,0 914,-504 1133,-871 213,-360 336,-529 531,-529 196,0 317,169 531,529 163,348 438,632 782,804l0 8128zm0 -9012c-55,-76 -112,-164 -180,-280 -219,-367 -518,-871 -1133,-871 -615,0 -914,504 -1133,871 -214,360 -335,529 -531,529 -196,0 -318,-169 -532,-529 -218,-367 -518,-871 -1134,-871 -615,0 -914,503 -1132,872 -72,121 -132,212 -190,291 8,-149 15,-298 15,-450 4,-832 -126,-1659 -385,-2450l6335 0 0 2888z"/>
   </g>
  </g>
  <g id="_2780701181312">
   <g>
    <path class="fil0" d="M14165 4392c-135,-72 -301,-48 -410,58 -201,198 -4922,4881 -5635,8291 -222,922 -363,1862 -420,2808 0,2355 1230,4200 2800,4200 1570,0 2800,-1845 2800,-4200 34,-739 -85,-1477 -350,-2168 -128,-351 -234,-709 -317,-1073 -689,-3026 1651,-7399 1675,-7442 91,-170 27,-382 -143,-474zm-2215 8071c89,390 202,774 339,1149 237,617 343,1277 311,1937 0,1898 -962,3500 -2100,3500 -1138,0 -2100,-1602 -2100,-3500 59,-898 195,-1790 405,-2665 431,-2062 2541,-4738 4004,-6396 -635,1641 -1304,4016 -859,5975z"/>
   </g>
  </g>
  <g id="_2780701182176">
   <g>
    <path class="fil0" d="M2450 17299c-580,0 -1050,470 -1050,1050 0,580 470,1050 1050,1050 580,0 1050,-470 1050,-1050 0,-580 -470,-1050 -1050,-1050zm0 1400c-193,0 -350,-156 -350,-350 0,-193 157,-350 350,-350 193,0 350,157 350,350 0,194 -157,350 -350,350z"/>
   </g>
  </g>
  <g id="_2780701180384">
   <g>
    <path class="fil0" d="M18200 17299c-580,0 -1050,470 -1050,1050 0,580 470,1050 1050,1050 580,0 1050,-470 1050,-1050 0,-580 -470,-1050 -1050,-1050zm0 1400c-193,0 -350,-156 -350,-350 0,-193 157,-350 350,-350 193,0 350,157 350,350 0,194 -157,350 -350,350z"/>
   </g>
  </g>
  <g id="_2780701179328">
   <g>
    <path class="fil0" d="M5600 18349c-580,0 -1050,470 -1050,1050 0,580 470,1050 1050,1050 580,0 1050,-470 1050,-1050 0,-580 -470,-1050 -1050,-1050zm0 1400c-193,0 -350,-156 -350,-350 0,-193 157,-350 350,-350 193,0 350,157 350,350 0,194 -157,350 -350,350z"/>
   </g>
  </g>
  <g id="_2780701180128">
   <g>
    <path class="fil0" d="M15400 18349c-580,0 -1050,470 -1050,1050 0,580 470,1050 1050,1050 580,0 1050,-470 1050,-1050 0,-580 -470,-1050 -1050,-1050zm0 1400c-193,0 -350,-156 -350,-350 0,-193 157,-350 350,-350 193,0 350,157 350,350 0,194 -157,350 -350,350z"/>
   </g>
  </g>
  <g id="_2780701180672">
   <g>
    <path class="fil0" d="M3150 21149c-580,0 -1050,470 -1050,1050 0,580 470,1050 1050,1050 580,0 1050,-470 1050,-1050 0,-580 -470,-1050 -1050,-1050zm0 1400c-193,0 -350,-156 -350,-350 0,-193 157,-350 350,-350 193,0 350,157 350,350 0,194 -157,350 -350,350z"/>
   </g>
  </g>
  <g id="_2780701179232">
   <g>
    <path class="fil0" d="M17850 21149c-580,0 -1050,470 -1050,1050 0,580 470,1050 1050,1050 580,0 1050,-470 1050,-1050 0,-580 -470,-1050 -1050,-1050zm0 1400c-193,0 -350,-156 -350,-350 0,-193 157,-350 350,-350 193,0 350,157 350,350 0,194 -157,350 -350,350z"/>
   </g>
  </g>
  <g id="_2780701179776">
   <g>
    <path class="fil0" d="M7700 20799c-580,0 -1050,470 -1050,1050 0,580 470,1050 1050,1050 580,0 1050,-470 1050,-1050 0,-580 -470,-1050 -1050,-1050zm0 1400c-193,0 -350,-156 -350,-350 0,-193 157,-350 350,-350 193,0 350,157 350,350 0,194 -157,350 -350,350z"/>
   </g>
  </g>
  <g id="_2780701178656">
   <g>
    <path class="fil0" d="M13300 20799c-580,0 -1050,470 -1050,1050 0,580 470,1050 1050,1050 580,0 1050,-470 1050,-1050 0,-580 -470,-1050 -1050,-1050zm0 1400c-193,0 -350,-156 -350,-350 0,-193 157,-350 350,-350 193,0 350,157 350,350 0,194 -157,350 -350,350z"/>
   </g>
  </g>
  <g id="_2780701177056">
   <g>
    <path class="fil0" d="M10500 22199c-580,0 -1050,470 -1050,1050 0,580 470,1050 1050,1050 580,0 1050,-470 1050,-1050 0,-580 -470,-1050 -1050,-1050zm0 1400c-193,0 -350,-156 -350,-350 0,-193 157,-350 350,-350 193,0 350,157 350,350 0,194 -157,350 -350,350z"/>
   </g>
  </g>
  <g id="_2780701178592">
  </g>
  <g id="_2780701177024">
  </g>
  <g id="_2780701177952">
  </g>
  <g id="_2780701176800">
  </g>
  <g id="_2780701177984">
  </g>
  <g id="_2780701175328">
  </g>
  <g id="_2780701175872">
  </g>
  <g id="_2780701175776">
  </g>
  <g id="_2780701174944">
  </g>
  <g id="_2780701175616">
  </g>
  <g id="_2780701176064">
  </g>
  <g id="_2780701175008">
  </g>
  <g id="_2780701175680">
  </g>
  <g id="_2780701173248">
  </g>
  <g id="_2780701174368">
  </g>
 </g>
</svg>
